<?xml version="1.0" encoding="utf-8"?>
<!-- Generator: Adobe Illustrator 15.1.0, SVG Export Plug-In . SVG Version: 6.00 Build 0)  -->
<!DOCTYPE svg PUBLIC "-//W3C//DTD SVG 1.1//EN" "http://www.w3.org/Graphics/SVG/1.1/DTD/svg11.dtd">
<svg version="1.1" id="Layer_1" xmlns="http://www.w3.org/2000/svg" xmlns:xlink="http://www.w3.org/1999/xlink" x="0px" y="0px"
	 width="292px" height="76px" viewBox="0 0 292 76" enable-background="new 0 0 292 76" xml:space="preserve">
<polygon fill="#6699CC" points="274.032,8.583 276.4,4.895 278.756,8.583 281.233,8.583 276.418,1 271.589,8.583 "/>
<polygon fill="#6699CC" points="268.022,17.94 272.852,10.421 270.417,10.421 265.628,17.94 "/>
<polygon fill="#6699CC" points="287.177,17.94 282.401,10.421 279.932,10.421 284.735,17.94 "/>
<path fill="#6699CC" d="M228.168,17.784v-0.395c-0.125,0.138-0.338,0.258-0.637,0.361c-0.3,0.103-0.609,0.155-0.929,0.155
	c-0.906,0-1.619-0.288-2.139-0.862c-0.521-0.575-0.78-1.375-0.78-2.403c0-1.028,0.299-1.864,0.895-2.51
	c0.597-0.646,1.345-0.968,2.243-0.968c0.493,0,0.942,0.102,1.347,0.304V8.863l1.518-0.364v9.285H228.168L228.168,17.784z
	 M228.168,12.837c-0.323-0.259-0.661-0.389-1.013-0.389c-0.607,0-1.075,0.185-1.402,0.556s-0.492,0.902-0.492,1.593
	c0,1.352,0.652,2.027,1.955,2.027c0.146,0,0.324-0.043,0.537-0.13c0.212-0.087,0.351-0.175,0.416-0.264L228.168,12.837
	L228.168,12.837z"/>
<path fill="#6699CC" d="M237.005,14.998h-4.644c0.028,0.518,0.207,0.92,0.534,1.208c0.328,0.287,0.769,0.43,1.323,0.43
	c0.691,0,1.218-0.18,1.578-0.54l0.589,1.159c-0.534,0.433-1.331,0.649-2.392,0.649c-0.991,0-1.775-0.29-2.351-0.871
	c-0.577-0.581-0.865-1.391-0.865-2.431c0-1.023,0.316-1.852,0.949-2.488c0.634-0.635,1.394-0.953,2.279-0.953
	c0.942,0,1.699,0.281,2.271,0.844c0.569,0.563,0.855,1.278,0.855,2.148C237.132,14.34,237.09,14.622,237.005,14.998z
	 M232.417,13.857h3.191c-0.105-0.951-0.631-1.426-1.577-1.426C233.165,12.431,232.627,12.906,232.417,13.857z"/>
<path fill="#6699CC" d="M241.963,17.133c-0.138,0.227-0.378,0.413-0.719,0.556c-0.343,0.144-0.699,0.215-1.071,0.215
	c-0.7,0-1.25-0.175-1.65-0.525c-0.401-0.35-0.602-0.847-0.602-1.49c0-0.752,0.282-1.341,0.847-1.767
	c0.564-0.424,1.366-0.637,2.406-0.637c0.178,0,0.389,0.03,0.631,0.091c0-0.765-0.483-1.147-1.45-1.147
	c-0.57,0-1.048,0.096-1.433,0.286l-0.327-1.178c0.521-0.25,1.144-0.376,1.863-0.376c0.991,0,1.718,0.225,2.179,0.677
	c0.461,0.451,0.691,1.306,0.691,2.564v1.39c0,0.866,0.174,1.41,0.522,1.633c-0.126,0.219-0.266,0.353-0.419,0.404
	c-0.154,0.051-0.33,0.076-0.528,0.076c-0.219,0-0.415-0.081-0.589-0.243C242.141,17.5,242.023,17.324,241.963,17.133z
	 M241.816,14.725c-0.258-0.053-0.452-0.079-0.582-0.079c-1.198,0-1.797,0.393-1.797,1.177c0,0.583,0.339,0.874,1.014,0.874
	c0.91,0,1.365-0.455,1.365-1.365V14.725L241.816,14.725z"/>
<path fill="#6699CC" d="M245.228,8.862l1.518-0.364v7.307c0,0.801,0.238,1.278,0.716,1.432c-0.234,0.445-0.635,0.667-1.201,0.667
	c-0.688,0-1.032-0.477-1.032-1.432V8.862z"/>
<path fill="#6699CC" d="M254.435,14.998h-4.644c0.029,0.518,0.207,0.92,0.534,1.208c0.328,0.287,0.77,0.43,1.324,0.43
	c0.691,0,1.218-0.18,1.577-0.54l0.589,1.159c-0.534,0.433-1.331,0.649-2.391,0.649c-0.992,0-1.775-0.29-2.353-0.871
	c-0.576-0.581-0.864-1.391-0.864-2.431c0-1.023,0.316-1.852,0.95-2.488c0.633-0.635,1.393-0.953,2.278-0.953
	c0.942,0,1.699,0.281,2.27,0.844s0.855,1.278,0.855,2.148C254.562,14.34,254.52,14.622,254.435,14.998z M249.847,13.857h3.191
	c-0.104-0.951-0.631-1.426-1.577-1.426C250.595,12.431,250.057,12.906,249.847,13.857z"/>
<path fill="#6699CC" d="M259.531,12.698c-0.271-0.178-0.567-0.267-0.892-0.267c-0.352,0-0.664,0.16-0.938,0.479
	c-0.273,0.32-0.409,0.71-0.409,1.172v3.701h-1.518v-6.5h1.518v0.595c0.424-0.478,0.989-0.717,1.693-0.717
	c0.518,0,0.914,0.079,1.189,0.237L259.531,12.698z"/>
<path fill="#6699CC" d="M260.686,17.365l0.54-1.208c0.453,0.36,0.965,0.54,1.535,0.54c0.591,0,0.886-0.21,0.886-0.631
	c0-0.246-0.089-0.449-0.267-0.607c-0.179-0.158-0.524-0.344-1.038-0.559c-1.12-0.465-1.681-1.116-1.681-1.954
	c0-0.563,0.214-1,0.643-1.314s0.978-0.47,1.645-0.47c0.676,0,1.312,0.151,1.906,0.455l-0.437,1.178
	c-0.332-0.284-0.794-0.425-1.384-0.425c-0.53,0-0.795,0.21-0.795,0.631c0,0.166,0.087,0.316,0.261,0.449
	c0.174,0.134,0.546,0.313,1.116,0.537c0.57,0.225,0.981,0.497,1.232,0.816s0.376,0.706,0.376,1.16c0,0.603-0.224,1.077-0.67,1.423
	c-0.447,0.346-1.056,0.519-1.824,0.519c-0.433,0-0.779-0.035-1.041-0.106C261.429,17.728,261.094,17.583,260.686,17.365z"/>
<path fill="#6699CC" d="M283.572,10.285V4.907h-0.852V3.634h2.422v6.651H283.572L283.572,10.285z M284.373,1.057
	c0.249,0,0.461,0.088,0.637,0.264c0.176,0.176,0.264,0.388,0.264,0.636s-0.088,0.46-0.264,0.637
	c-0.176,0.176-0.388,0.264-0.637,0.264c-0.248,0-0.46-0.088-0.637-0.264c-0.176-0.176-0.263-0.388-0.263-0.637
	s0.087-0.46,0.263-0.636C283.913,1.144,284.125,1.057,284.373,1.057z"/>
<path fill="#6699CC" d="M290.795,5.081c-0.277-0.182-0.582-0.273-0.913-0.273c-0.36,0-0.68,0.164-0.959,0.491
	s-0.42,0.727-0.42,1.199v3.788h-1.553V3.634h1.553v0.608c0.436-0.488,1.012-0.732,1.733-0.732c0.529,0,0.936,0.081,1.217,0.242
	L290.795,5.081z"/>
<path fill="#DE0000" d="M3.419,15.248c-1.648-1.525-2.472-3.418-2.472-5.677c0-2.258,0.824-4.15,2.472-5.677
	c1.648-1.525,3.784-2.289,6.41-2.289c2.624,0,4.761,0.732,6.409,2.197c1.648,1.465,2.472,3.296,2.472,5.494
	c0,2.381-0.824,4.349-2.472,5.906s-3.786,2.335-6.409,2.335C7.204,17.537,5.068,16.774,3.419,15.248z M2.687,24.404h14.284v49.26
	H2.687V24.404z"/>
<path fill="#218521" d="M90.037,9.571v64.093H77.859L45.904,34.75v38.914h-14.65V9.571h12.27l31.863,38.913V9.571H90.037z"/>
<path fill="#218521" d="M120.069,21.474v16.939h29.667v11.903h-29.667v23.348h-14.833V9.571h48.436v11.903H120.069z"/>
<path fill="#218521" d="M176.151,70.459c-5.343-2.867-9.522-6.82-12.544-11.855c-3.021-5.037-4.532-10.697-4.532-16.986
	c0-6.286,1.511-11.948,4.532-16.984s7.201-8.987,12.544-11.857c5.341-2.869,11.338-4.303,17.991-4.303s12.636,1.435,17.946,4.303
	c5.311,2.87,9.491,6.821,12.544,11.857c3.052,5.036,4.578,10.698,4.578,16.984c0,6.289-1.526,11.949-4.578,16.986
	c-3.053,5.035-7.233,8.988-12.544,11.855c-5.311,2.871-11.293,4.305-17.946,4.305S181.492,73.33,176.151,70.459z M204.397,59.518
	c3.052-1.738,5.448-4.166,7.188-7.279c1.739-3.113,2.609-6.652,2.609-10.621c0-3.966-0.87-7.507-2.609-10.621
	c-1.74-3.113-4.137-5.54-7.188-7.279c-3.053-1.74-6.471-2.61-10.255-2.61c-3.785,0-7.203,0.87-10.255,2.61
	c-3.053,1.739-5.447,4.166-7.188,7.279c-1.739,3.113-2.609,6.654-2.609,10.621c0,3.969,0.87,7.508,2.609,10.621
	c1.74,3.113,4.135,5.541,7.188,7.279c3.052,1.74,6.47,2.609,10.255,2.609C197.927,62.127,201.345,61.258,204.397,59.518z"/>
</svg>
